<svg width="36" height="36" viewBox="0 0 36 36" fill="none" xmlns="http://www.w3.org/2000/svg">
<path d="M12.2227 11.7281C10.7445 13.4759 8.12892 13.6962 6.38032 12.2186C4.63171 10.7411 4.4113 8.12671 5.88953 6.3789C7.36776 4.63109 9.98332 4.41078 11.7319 5.88834C12.1081 6.20559 12.4108 6.57865 12.643 6.98402L16.8925 4.53121C16.3841 3.64997 15.7258 2.83334 14.9 2.13716C11.0824 -1.08822 5.36642 -0.606467 2.13958 3.21228C-1.09019 7.03102 -0.608221 12.7445 3.21226 15.9698C7.03274 19.1952 12.7488 18.7164 15.9756 14.8976C16.3283 14.4805 16.631 14.037 16.8955 13.5787L12.6459 11.1259C12.5254 11.3345 12.3873 11.5371 12.2256 11.731L12.2227 11.7281Z" fill="#D2E991"/>
<path d="M16.896 4.53174L12.6465 6.98455C13.3783 8.25061 13.3959 9.83392 12.6465 11.1235L16.896 13.5763C18.53 10.7534 18.4918 7.29592 16.896 4.53174Z" fill="#8ECFC4"/>
<path d="M34.7867 4.53147C34.2783 3.65022 33.62 2.83359 32.7942 2.13741C28.9737 -1.08797 23.2577 -0.609153 20.0308 3.20959C16.804 7.02834 17.283 12.7418 21.1035 15.9671C24.924 19.1925 30.64 18.7137 33.8668 14.895C34.2195 14.4778 34.5222 14.0343 34.7867 13.576C36.4207 10.7531 36.3825 7.29565 34.7867 4.53147ZM30.1169 11.7283C28.6387 13.4761 26.0231 13.6965 24.2745 12.2189C22.5259 10.7413 22.3055 8.12696 23.7837 6.37915C25.2619 4.63134 27.8775 4.41103 29.6261 5.88859C30.0023 6.20584 30.305 6.5789 30.5372 6.98428C31.2689 8.25034 31.2866 9.83365 30.5372 11.1232C30.4167 11.3318 30.2785 11.5345 30.1169 11.7283Z" fill="#8ECFC4"/>
<path d="M23.7753 24.2717C25.2535 22.5239 27.8691 22.3036 29.6177 23.7812C31.3663 25.2587 31.5867 27.8731 30.1084 29.6209C28.6302 31.3687 26.0147 31.589 24.2661 30.1115C23.8899 29.7942 23.5872 29.4212 23.355 29.0158L19.1055 31.4686C19.6139 32.3498 20.2722 33.1665 21.098 33.8626C24.9185 37.088 30.6345 36.6092 33.8613 32.7905C37.0882 28.9717 36.6091 23.2583 32.7887 20.0329C28.9682 16.8075 23.2522 17.2864 20.0253 21.1051C19.6727 21.5222 19.37 21.9658 19.1055 22.424L23.355 24.8768C23.4755 24.6683 23.6136 24.4656 23.7753 24.2717Z" fill="#D2E991"/>
<path d="M19.1057 31.469L23.3553 29.0162C22.6235 27.7501 22.6059 26.1668 23.3553 24.8772L19.1057 22.4244C17.4717 25.2474 17.51 28.7048 19.1057 31.469Z" fill="#8ECFC4"/>
<path d="M14.8944 20.03C11.0739 16.8046 5.3579 17.2834 2.13106 21.1022C1.7784 21.5193 1.4757 21.9629 1.21121 22.4211C-0.422782 25.244 -0.384577 28.7015 1.21121 31.4657C1.71963 32.3469 2.37792 33.1635 3.20373 33.8597C7.02421 37.0851 12.7402 36.6063 15.9671 32.7875C19.1939 28.9688 18.7149 23.2554 14.8944 20.03ZM12.2171 29.6209C10.7389 31.3687 8.12334 31.589 6.37473 30.1115C5.99856 29.7942 5.69586 29.4212 5.46369 29.0158C4.73193 27.7497 4.71429 26.1664 5.46369 24.8769C5.58419 24.6683 5.72231 24.4656 5.88395 24.2717C7.36218 22.5239 9.97774 22.3036 11.7263 23.7812C13.4749 25.2587 13.6954 27.8731 12.2171 29.6209Z" fill="#8ECFC4"/>
</svg>
